<svg xmlns="http://www.w3.org/2000/svg" width="480" height="520" viewBox="0 0 480 520"><rect width="480" height="520" rx="20" fill="#123746"/><circle cx="320" cy="130" r="150" fill="#1e5364"/><circle cx="90" cy="420" r="170" fill="#164452"/><path d="M85 85L172 355M392 85L307 355" stroke="#e7c082" stroke-width="38" opacity=".14"/><g transform="translate(210 110)"><rect x="0" y="0" width="65" height="158" rx="32" fill="#e8c187"/><path d="M-20 99v40c0 35 25 61 52 61s54-26 54-61V99M32 200v165M-32 365h130" fill="none" stroke="#eff6f8" stroke-width="9" stroke-linecap="round"/><path d="M8 37h49M5 58h55M5 79h55M5 100h55M8 121h49" stroke="#123746" stroke-width="5"/></g><g fill="#e8c187"><circle cx="97" cy="204" r="9"/><circle cx="369" cy="318" r="9"/><path d="M103 199v-57l28-8v13l-22 6v46M375 316v-43l26-7v12l-20 5v33"/></g></svg>
